<?xml version="1.0"?>
<svg xmlns="http://www.w3.org/2000/svg" id="Outline" viewBox="0 0 64 64" width="512" height="512"><title>Timer icon</title><desc>Timer icon for website, application, printing, document, poster design, etc.</desc><metadata><?xpacket begin="﻿" id="W5M0MpCehiHzreSzNTczkc9d"?><x:xmpmeta xmlns:x="adobe:ns:meta/" x:xmptk="Adobe XMP Core 5.6-c145 79.163499, 2018/08/13-16:40:22        "><rdf:RDF xmlns:rdf="http://www.w3.org/1999/02/22-rdf-syntax-ns#"><rdf:Description xmlns:dc="http://purl.org/dc/elements/1.1/" rdf:about=""><dc:title><rdf:Alt><rdf:li xml:lang="x-default">Timer icon</rdf:li></rdf:Alt></dc:title><dc:description><rdf:Alt><rdf:li xml:lang="x-default">Timer icon for website, application, printing, document, poster design, etc.</rdf:li></rdf:Alt></dc:description><dc:subject><rdf:Bag><rdf:li xml:lang="x-default">Timer</rdf:li><rdf:li>stop</rdf:li><rdf:li>watch</rdf:li><rdf:li>time</rdf:li><rdf:li>date</rdf:li><rdf:li>clock</rdf:li><rdf:li>tool</rdf:li></rdf:Bag></dc:subject></rdf:Description></rdf:RDF></x:xmpmeta><?xpacket end="w"?></metadata><path d="M47.53,22.05l1.27-1.81h0a1.93,1.93,0,0,0,1.14.36,2,2,0,0,0,1.64-.85l1.15-1.64a2,2,0,0,0,.33-1.49,1.94,1.94,0,0,0-.82-1.29l-4.92-3.44a2,2,0,0,0-1.49-.34,2,2,0,0,0-1.29.83L43.39,14a2,2,0,0,0,.49,2.78l-1.26,1.81A22.72,22.72,0,0,0,36,16.36V15h1a5,5,0,0,0,5-5V7a5,5,0,0,0-5-5H27a5,5,0,0,0-5,5v3a5,5,0,0,0,5,5h1v1.36a22.72,22.72,0,0,0-6.62,2.25L20.12,16.8h0A2,2,0,0,0,20.61,14l-1.15-1.64a2,2,0,0,0-1.29-.83,2,2,0,0,0-1.49.34l-4.92,3.44a1.94,1.94,0,0,0-.82,1.29,2,2,0,0,0,.33,1.49l1.15,1.64a2,2,0,0,0,1.64.85,1.93,1.93,0,0,0,1.14-.36h0l1.27,1.81a23,23,0,0,0-4.2,28.78,1,1,0,0,0,1.72-1,21,21,0,1,1,3.6,4.48,1,1,0,0,0-1.37,1.45A23,23,0,1,0,47.53,22.05Zm-1.35-8.53L51.09,17,49.94,18.6h0L45,15.16ZM45.52,18l1.64,1.15L46,20.76c-.53-.4-1.07-.79-1.64-1.15ZM27,13a3,3,0,0,1-3-3V7a3,3,0,0,1,3-3H37a3,3,0,0,1,3,3v3a3,3,0,0,1-3,3H36V11h1a1,1,0,0,0,0-2H27a1,1,0,0,0,0,2h1v2ZM14.06,18.6,12.91,17l4.91-3.45L19,15.16l-.82.57h0l-.59.41Zm2.78.49L18.48,18l1.17,1.66c-.57.36-1.11.75-1.64,1.15Zm13.16-3V11h4v5.09C33.34,16,32.67,16,32,16S30.66,16,30,16.09Z"/><path d="M46.1,29.5a1,1,0,0,0,1.39.26,1,1,0,0,0,.26-1.38,18.48,18.48,0,0,0-2.31-2.81h0a19,19,0,0,0-26.82,0s0,0,0,0,0,0,0,0a19,19,0,0,0,0,26.78s0,0,0,0,0,0,0,0a19,19,0,0,0,26.78,0s0,0,0,0,0,0,0,0A18.94,18.94,0,0,0,51,39a19.19,19.19,0,0,0-.85-5.65,1,1,0,0,0-1.26-.66,1,1,0,0,0-.65,1.25A17.47,17.47,0,0,1,49,38H46a1,1,0,0,0,0,2h3a16.92,16.92,0,0,1-4.26,10.27l-2.08-2.08a1,1,0,0,0-1.42,1.42l2.08,2.08A16.92,16.92,0,0,1,33,56V53a1,1,0,0,0-2,0v3a16.92,16.92,0,0,1-10.27-4.26l2.08-2.08a1,1,0,1,0-1.42-1.42l-2.08,2.08A16.92,16.92,0,0,1,15.05,40H18a1,1,0,0,0,0-2H15.05a16.92,16.92,0,0,1,4.26-10.27l2.08,2.08a1,1,0,0,0,1.42,0,1,1,0,0,0,0-1.42l-2.08-2.08A16.92,16.92,0,0,1,31,22.05V25a1,1,0,0,0,2,0V22a17.05,17.05,0,0,1,10.29,4.26l-2.1,2.1a1,1,0,0,0,0,1.42,1,1,0,0,0,1.42,0l2.1-2.1A17.77,17.77,0,0,1,46.1,29.5Z"/><path d="M28.5,45.06a1,1,0,0,0,1.37-.36l1.59-2.77A3.35,3.35,0,0,0,32,42a3,3,0,0,0,2.61-1.5h0a3,3,0,0,0-.33-3.44l2.6-4.49a1,1,0,0,0-1.74-1l-2.59,4.49a3,3,0,0,0-2.81,4.88l-1.6,2.76A1,1,0,0,0,28.5,45.06Zm2.63-6.56a1,1,0,1,1,.37,1.37A1,1,0,0,1,31.13,38.5Z"/><path d="M29,29.4a1,1,0,0,0-1.31-.53A11,11,0,0,0,21,39a1,1,0,0,0,2,0,9,9,0,0,1,5.5-8.29A1,1,0,0,0,29,29.4Z"/><path d="M34,49.8l.2,0a11,11,0,0,0,8.69-12.3,1,1,0,0,0-1.13-.85,1,1,0,0,0-.85,1.13A8.52,8.52,0,0,1,41,39a9,9,0,0,1-7.2,8.82,1,1,0,0,0,.2,2Z"/></svg>
